# xmcd
#
# Track frame offsets:
#	150
#	18176
#	36562
#	54496
#	68806
#	83356
#	102527
#	117976
#	142223
#	162566
#	185056
#
# Disc length: 2699 seconds
#
# Revision: 1
# Processed by: cddbd v1.5.2PL0 Copyright (c) Steve Scherf et al.
# Submitted via: audiograbber 1.83.01
#
DISCID=9d0a890b
DTITLE=Cameo Blues - 10,000 Hours
DYEAR=2012
DGENRE=Blues
TTITLE0=Penguin Walk
TTITLE1=10,00 Hours
TTITLE2=21st Century Rocket 88
TTITLE3=Gasoline
TTITLE4=Plowin' Our Row
TTITLE5=Hold Your Love
TTITLE6=Talk Radio
TTITLE7=Howlin'
TTITLE8=Sittin'on Top of the World
TTITLE9=Rock and Roll
TTITLE10=All About My Girl
EXTD=
EXTT0=
EXTT1=
EXTT2=
EXTT3=
EXTT4=
EXTT5=
EXTT6=
EXTT7=
EXTT8=
EXTT9=
EXTT10=
PLAYORDER=
